@startuml mod08ima03
hide circle
hide methods
hide empty members

skinparam class {
    BackgroundColor White
    ArrowColor Black
    BorderColor #505050
}
class "FolhaPagamento" as fo
class "InterfaceExigida" as in
class "Adaptador" as ad
class "SistemaEsporte" as si
left to right direction
fo ..> in
ad -left-|> in
ad *--> si
@enduml