@startuml mod05ima01
hide circle
hide methods
hide empty members

skinparam class {
    BackgroundColor White
    ArrowColor Black
    BorderColor #505050
}
skinparam linetype ortho
class "Teclado" as te
class "Computador" as co 
class "Placa-mãe" as pl
class "Mouse" as mo
class "Memória" as me
class "CPU" as cp
left to right direction
te --o co
mo --o co
co o-- pl
cp --o pl
cp --> me : Acessa
@enduml