@startuml mod04ima03
hide circle
hide methods
hide empty members

skinparam class {
    BackgroundColor White
    ArrowColor Black
    BorderColor #505050
}
class "Árvore" as ar 
class "Elemento" as el 
class "Árvore" as ar2 
class "Elemento" as el2

left to right direction
ar -->"0..1 \n raíz" el
el "filho 0..1"--- "0..1 pai" el
ar2 -->"0..1 \n raíz" el2
el2 "irmão 0..1"---"0..1 irmão" el2
el -[#White]- ar2
@enduml

